<svg width="117" height="20" viewBox="0 0 117 20" fill="none" xmlns="http://www.w3.org/2000/svg">
<path d="M21 7.65517H12.985L10.5 0L8.015 7.65517H0L6.475 12.3793L4.025 20L10.5 15.2759L16.975 20L14.49 12.3448L21 7.65517Z" fill="#FFCE31"/>
<path d="M45 7.65517H36.985L34.5 0L32.015 7.65517H24L30.475 12.3793L28.025 20L34.5 15.2759L40.975 20L38.49 12.3448L45 7.65517Z" fill="#FFCE31"/>
<path d="M69 7.65517H60.985L58.5 0L56.015 7.65517H48L54.475 12.3793L52.025 20L58.5 15.2759L64.975 20L62.49 12.3448L69 7.65517Z" fill="#FFCE31"/>
<path d="M93 7.65517H84.985L82.5 0L80.015 7.65517H72L78.475 12.3793L76.025 20L82.5 15.2759L88.975 20L86.49 12.3448L93 7.65517Z" fill="#FFCE31"/>
<path d="M117 7.65517H108.985L106.5 0L104.015 7.65517H96L102.475 12.3793L100.025 20L106.5 15.2759L112.975 20L110.49 12.3448L117 7.65517Z" fill="#FFCE31"/>
</svg>
