<svg width="31" height="32" viewBox="0 0 31 32" fill="none" xmlns="http://www.w3.org/2000/svg">
<path fill-rule="evenodd" clip-rule="evenodd" d="M9.10977 0.096C10.7626 0.0174545 11.2896 0 15.5 0C19.7104 0 20.2374 0.0189091 21.8888 0.096C23.5403 0.173091 24.6675 0.445091 25.6539 0.839273C26.6868 1.24218 27.6238 1.872 28.3988 2.68655C29.1879 3.48509 29.7966 4.45091 30.1855 5.51855C30.5688 6.53673 30.8309 7.70036 30.907 9.40218C30.9831 11.1113 31 11.6553 31 16C31 20.3462 30.9817 20.8902 30.907 22.5964C30.8323 24.2982 30.5688 25.4618 30.1855 26.48C29.7966 27.5478 29.1869 28.5152 28.3988 29.3149C27.6238 30.1295 26.6868 30.7578 25.6539 31.1593C24.6675 31.5549 23.5403 31.8255 21.8916 31.904C20.2374 31.9825 19.7104 32 15.5 32C11.2896 32 10.7626 31.9811 9.10977 31.904C7.46114 31.8269 6.33386 31.5549 5.3475 31.1593C4.31312 30.7578 3.37593 30.1284 2.60118 29.3149C1.81263 28.5159 1.2024 27.5489 0.813045 26.4815C0.431182 25.4633 0.169091 24.2996 0.093 22.5978C0.0169091 20.8887 0 20.3447 0 16C0 11.6538 0.0183182 11.1098 0.093 9.40509C0.167682 7.70036 0.431182 6.53673 0.813045 5.51855C1.20297 4.45103 1.81367 3.48409 2.60259 2.68509C3.37624 1.87127 4.31248 1.24137 5.34609 0.839273C6.33245 0.445091 7.45973 0.174545 9.10836 0.096H9.10977ZM21.7634 2.976C20.1289 2.89891 19.6385 2.88291 15.5 2.88291C11.3615 2.88291 10.8711 2.89891 9.23659 2.976C7.72464 3.04727 6.90455 3.30764 6.35782 3.52727C5.63495 3.81818 5.11782 4.16291 4.57532 4.72291C4.06106 5.23935 3.6653 5.86805 3.41705 6.56291C3.20427 7.12727 2.95205 7.97382 2.883 9.53455C2.80832 11.2218 2.79282 11.728 2.79282 16C2.79282 20.272 2.80832 20.7782 2.883 22.4655C2.95205 24.0262 3.20427 24.8727 3.41705 25.4371C3.66505 26.1309 4.061 26.7607 4.57532 27.2771C5.07555 27.808 5.68568 28.2167 6.35782 28.4727C6.90455 28.6924 7.72464 28.9527 9.23659 29.024C10.8711 29.1011 11.3601 29.1171 15.5 29.1171C19.6399 29.1171 20.1289 29.1011 21.7634 29.024C23.2754 28.9527 24.0955 28.6924 24.6422 28.4727C25.365 28.1818 25.8822 27.8371 26.4247 27.2771C26.939 26.7607 27.335 26.1309 27.583 25.4371C27.7957 24.8727 28.048 24.0262 28.117 22.4655C28.1917 20.7782 28.2072 20.272 28.2072 16C28.2072 11.728 28.1917 11.2218 28.117 9.53455C28.048 7.97382 27.7957 7.12727 27.583 6.56291C27.3011 5.81673 26.9672 5.28291 26.4247 4.72291C25.9244 4.1921 25.3153 3.78358 24.6422 3.52727C24.0955 3.30764 23.2754 3.04727 21.7634 2.976ZM13.5202 20.9324C14.6259 21.4075 15.857 21.4716 17.0034 21.1138C18.1498 20.756 19.1402 19.9984 19.8056 18.9705C20.471 17.9426 20.7701 16.7082 20.6517 15.478C20.5333 14.2478 20.0049 13.0981 19.1566 12.2255C18.6158 11.6676 17.962 11.2405 17.2421 10.9748C16.5222 10.7091 15.7542 10.6114 14.9934 10.6889C14.2326 10.7664 13.4979 11.017 12.8422 11.4227C12.1865 11.8285 11.626 12.3793 11.2013 13.0354C10.7765 13.6916 10.498 14.4368 10.3857 15.2174C10.2735 15.998 10.3303 16.7946 10.552 17.5498C10.7738 18.3051 11.155 19.0002 11.6683 19.5851C12.1815 20.1699 12.814 20.6301 13.5202 20.9324ZM9.86645 10.1847C10.6063 9.42105 11.4845 8.81528 12.4511 8.40198C13.4178 7.98868 14.4538 7.77596 15.5 7.77596C16.5462 7.77596 17.5822 7.98868 18.5489 8.40198C19.5155 8.81528 20.3937 9.42105 21.1335 10.1847C21.8734 10.9484 22.4602 11.855 22.8606 12.8528C23.261 13.8506 23.467 14.92 23.467 16C23.467 17.08 23.261 18.1494 22.8606 19.1472C22.4602 20.145 21.8734 21.0516 21.1335 21.8153C19.6394 23.3576 17.613 24.224 15.5 24.224C13.387 24.224 11.3606 23.3576 9.86645 21.8153C8.37234 20.273 7.53296 18.1812 7.53296 16C7.53296 13.8188 8.37234 11.727 9.86645 10.1847ZM25.234 9.00073C25.4173 8.82221 25.5641 8.60754 25.6656 8.36942C25.7671 8.1313 25.8213 7.87457 25.825 7.61444C25.8287 7.35431 25.7817 7.09607 25.687 6.855C25.5923 6.61392 25.4516 6.39492 25.2734 6.21097C25.0952 6.02701 24.883 5.88183 24.6495 5.78403C24.416 5.68622 24.1658 5.63778 23.9138 5.64158C23.6618 5.64537 23.4131 5.70131 23.1824 5.8061C22.9517 5.91089 22.7438 6.06239 22.5708 6.25164C22.2345 6.61968 22.0503 7.10854 22.0575 7.61444C22.0646 8.12035 22.2625 8.60346 22.6091 8.96123C22.9557 9.31899 23.4237 9.52324 23.9138 9.53062C24.4039 9.53799 24.8775 9.34791 25.234 9.00073Z" fill="white"/>
</svg>
