<svg width="37" height="37" viewBox="0 0 37 37" fill="none" xmlns="http://www.w3.org/2000/svg">
<circle cx="18.5" cy="18.5" r="18.5" fill="white"/>
<path d="M10.3824 7C9.4853 7 8.62498 7.36216 7.99067 8.00682C7.35635 8.65148 7 9.52582 7 10.4375V22.8125C7 23.7242 7.35635 24.5985 7.99067 25.2432C8.62498 25.8878 9.4853 26.25 10.3824 26.25H17.2824C17.0611 25.8105 16.883 25.35 16.7506 24.875H10.3824C9.84412 24.875 9.32793 24.6577 8.94734 24.2709C8.56675 23.8841 8.35294 23.3595 8.35294 22.8125V13.1875H13.8608C14.1358 13.1876 14.408 13.1308 14.6608 13.0206C14.9137 12.9105 15.1418 12.7493 15.3314 12.5468L17.3081 10.4375H25.2647C25.8029 10.4375 26.3191 10.6548 26.6997 11.0416C27.0803 11.4284 27.2941 11.953 27.2941 12.5V16.075C27.7785 16.3266 28.2317 16.6305 28.6471 16.9784V12.5C28.6471 11.5883 28.2907 10.714 27.6564 10.0693C27.0221 9.42466 26.1618 9.0625 25.2647 9.0625H17.373L15.2083 7.4125C14.857 7.14474 14.4298 7 13.9906 7H10.3824ZM8.35294 10.4375C8.35294 9.89049 8.56675 9.36589 8.94734 8.97909C9.32793 8.5923 9.84412 8.375 10.3824 8.375H13.9906C14.137 8.375 14.2794 8.42325 14.3965 8.5125L16.0566 9.7775L14.3519 11.5994C14.2885 11.6669 14.2123 11.7206 14.1279 11.7573C14.0435 11.7939 13.9526 11.8127 13.8608 11.8125H8.35294V10.4375ZM30 22.8125C30 24.4535 29.3586 26.0273 28.2168 27.1877C27.075 28.3481 25.5265 29 23.9118 29C22.2971 29 20.7485 28.3481 19.6067 27.1877C18.465 26.0273 17.8235 24.4535 17.8235 22.8125C17.8235 21.1715 18.465 19.5977 19.6067 18.4373C20.7485 17.2769 22.2971 16.625 23.9118 16.625C25.5265 16.625 27.075 17.2769 28.2168 18.4373C29.3586 19.5977 30 21.1715 30 22.8125ZM24.5882 20.0625C24.5882 19.8802 24.517 19.7053 24.3901 19.5764C24.2632 19.4474 24.0912 19.375 23.9118 19.375C23.7324 19.375 23.5603 19.4474 23.4334 19.5764C23.3066 19.7053 23.2353 19.8802 23.2353 20.0625V22.125H21.2059C21.0265 22.125 20.8544 22.1974 20.7275 22.3264C20.6007 22.4553 20.5294 22.6302 20.5294 22.8125C20.5294 22.9948 20.6007 23.1697 20.7275 23.2986C20.8544 23.4276 21.0265 23.5 21.2059 23.5H23.2353V25.5625C23.2353 25.7448 23.3066 25.9197 23.4334 26.0486C23.5603 26.1776 23.7324 26.25 23.9118 26.25C24.0912 26.25 24.2632 26.1776 24.3901 26.0486C24.517 25.9197 24.5882 25.7448 24.5882 25.5625V23.5H26.6176C26.7971 23.5 26.9691 23.4276 27.096 23.2986C27.2228 23.1697 27.2941 22.9948 27.2941 22.8125C27.2941 22.6302 27.2228 22.4553 27.096 22.3264C26.9691 22.1974 26.7971 22.125 26.6176 22.125H24.5882V20.0625Z" fill="#543FC4"/>
</svg>
