<svg width="26" height="30" viewBox="0 0 26 30" fill="none" xmlns="http://www.w3.org/2000/svg">
<path d="M22.1513 6.9525C21.9614 6.85431 21.7766 6.74667 21.5975 6.63C21.0771 6.2859 20.5999 5.8805 20.1763 5.4225C19.115 4.20875 18.7188 2.9775 18.5738 2.11625H18.5788C18.4575 1.4 18.5075 0.9375 18.5163 0.9375H13.685V19.6162C13.685 19.8662 13.685 20.115 13.675 20.36C13.675 20.39 13.6713 20.4175 13.67 20.4513C13.67 20.4638 13.67 20.4787 13.6663 20.4925V20.5037C13.6155 21.1738 13.4009 21.8211 13.0413 22.3887C12.6816 22.9562 12.188 23.4267 11.6038 23.7588C10.9943 24.1055 10.305 24.2873 9.60378 24.2863C7.35378 24.2863 5.52878 22.4513 5.52878 20.185C5.52878 17.9175 7.35378 16.0825 9.60378 16.0825C10.03 16.0825 10.4538 16.15 10.8588 16.2825L10.865 11.3625C9.63505 11.2038 8.38552 11.3018 7.19533 11.6504C6.00514 11.9989 4.90012 12.5904 3.95003 13.3875C3.11735 14.1107 2.41726 14.9736 1.88128 15.9375C1.67753 16.2887 0.907531 17.7025 0.815031 19.995C0.756281 21.295 1.14753 22.645 1.33378 23.2013V23.2137C1.45003 23.5412 1.90503 24.6612 2.64503 25.605C3.24178 26.3625 3.94684 27.028 4.73753 27.58V27.5675L4.74878 27.58C7.08628 29.1675 9.68003 29.0637 9.68003 29.0637C10.1288 29.045 11.6325 29.0637 13.34 28.255C15.2338 27.3575 16.3113 26.0212 16.3113 26.0212C17.0002 25.2227 17.548 24.3126 17.9313 23.33C18.3688 22.18 18.5138 20.8025 18.5138 20.2525V10.3412C18.5725 10.3762 19.3538 10.8925 19.3538 10.8925C19.3538 10.8925 20.4788 11.6138 22.2325 12.0825C23.49 12.4163 25.1863 12.4875 25.1863 12.4875V7.69125C24.5925 7.75625 23.3863 7.56875 22.15 6.95375L22.1513 6.9525Z" fill="white"/>
</svg>
