<svg width="31" height="26" viewBox="0 0 31 26" fill="none" xmlns="http://www.w3.org/2000/svg">
<path d="M30.5239 3.58342C29.4106 4.07675 28.2146 4.41009 26.9573 4.56075C28.2546 3.78448 29.2252 2.56271 29.6879 1.12342C28.4691 1.84741 27.1351 2.35701 25.7439 2.63009C24.8084 1.63124 23.5693 0.969189 22.219 0.746719C20.8687 0.524249 19.4827 0.753809 18.2763 1.39976C17.0698 2.04571 16.1103 3.0719 15.5468 4.31903C14.9833 5.56615 14.8473 6.96442 15.1599 8.29675C12.6902 8.17275 10.2741 7.53082 8.0685 6.41263C5.8629 5.29443 3.91706 3.72497 2.35727 1.80609C1.82393 2.72609 1.51727 3.79275 1.51727 4.92875C1.51667 5.95141 1.76851 6.95841 2.25044 7.8604C2.73237 8.76238 3.42948 9.53147 4.27993 10.0994C3.29364 10.068 2.3291 9.80153 1.4666 9.32209V9.40209C1.4665 10.8364 1.96264 12.2266 2.87084 13.3367C3.77905 14.4469 5.04336 15.2087 6.44927 15.4928C5.53431 15.7404 4.57505 15.7768 3.64393 15.5994C4.0406 16.8336 4.81326 17.9128 5.85376 18.686C6.89425 19.4592 8.15049 19.8877 9.4466 19.9114C7.24638 21.6386 4.52912 22.5755 1.73193 22.5714C1.23644 22.5716 0.741369 22.5426 0.249268 22.4848C3.08857 24.3103 6.39372 25.2792 9.76927 25.2754C21.1959 25.2754 27.4426 15.8114 27.4426 7.60342C27.4426 7.33675 27.4359 7.06742 27.4239 6.80075C28.639 5.92205 29.6878 4.83395 30.5213 3.58742L30.5239 3.58342Z" fill="white"/>
</svg>
