<svg width="37" height="37" viewBox="0 0 37 37" fill="none" xmlns="http://www.w3.org/2000/svg">
<circle cx="18.5" cy="18.5" r="18.5" fill="white"/>
<path d="M20.1875 12.5938C20.1875 14.6077 19.3874 16.5392 17.9633 17.9633C16.5392 19.3874 14.6077 20.1875 12.5938 20.1875C10.5798 20.1875 8.64826 19.3874 7.22416 17.9633C5.80005 16.5392 5 14.6077 5 12.5938C5 10.5798 5.80005 8.64826 7.22416 7.22416C8.64826 5.80005 10.5798 5 12.5938 5C14.6077 5 16.5392 5.80005 17.9633 7.22416C19.3874 8.64826 20.1875 10.5798 20.1875 12.5938ZM13.4375 9.21875C13.4375 8.99497 13.3486 8.78036 13.1904 8.62213C13.0321 8.4639 12.8175 8.375 12.5938 8.375C12.37 8.375 12.1554 8.4639 11.9971 8.62213C11.8389 8.78036 11.75 8.99497 11.75 9.21875V11.75H9.21875C8.99497 11.75 8.78036 11.8389 8.62213 11.9971C8.4639 12.1554 8.375 12.37 8.375 12.5938C8.375 12.8175 8.4639 13.0321 8.62213 13.1904C8.78036 13.3486 8.99497 13.4375 9.21875 13.4375H11.75V15.9688C11.75 16.1925 11.8389 16.4071 11.9971 16.5654C12.1554 16.7236 12.37 16.8125 12.5938 16.8125C12.8175 16.8125 13.0321 16.7236 13.1904 16.5654C13.3486 16.4071 13.4375 16.1925 13.4375 15.9688V13.4375H15.9688C16.1925 13.4375 16.4071 13.3486 16.5654 13.1904C16.7236 13.0321 16.8125 12.8175 16.8125 12.5938C16.8125 12.37 16.7236 12.1554 16.5654 11.9971C16.4071 11.8389 16.1925 11.75 15.9688 11.75H13.4375V9.21875ZM26.9375 10.0625H21.5257C21.3606 9.47959 21.1384 8.91436 20.8625 8.375H26.9375C28.2288 8.37493 29.4713 8.8683 30.4108 9.75417C31.3503 10.64 31.9158 11.8514 31.9916 13.1405L32 13.4375V20.8271C31.9998 21.6194 31.7208 22.3865 31.2119 22.9938L31.0111 23.2132L23.2132 31.0111C22.6529 31.5714 21.9133 31.9167 21.1241 31.9865L20.8271 32H13.4375C12.1462 32.0001 10.9037 31.5067 9.96418 30.6208C9.02468 29.735 8.45919 28.5236 8.38344 27.2345L8.375 26.9375V20.8625C8.90994 21.1359 9.47356 21.3586 10.0625 21.5257V26.9375C10.0622 27.789 10.3838 28.6091 10.9628 29.2334C11.5417 29.8578 12.3353 30.2402 13.1844 30.3041L13.4375 30.3125H20.1875V25.25C20.1874 23.9587 20.6808 22.7162 21.5667 21.7767C22.4525 20.8372 23.6639 20.2717 24.953 20.1959L25.25 20.1875H30.3125V13.4375C30.3128 12.586 29.9912 11.7659 29.4122 11.1416C28.8333 10.5172 28.0397 10.1348 27.1906 10.0709L26.9375 10.0625ZM29.9463 21.8767L25.25 21.875C24.3985 21.8747 23.5784 22.1963 22.9541 22.7753C22.3297 23.3542 21.9473 24.1478 21.8834 24.9969L21.875 25.25V29.9429L22.0201 29.8181L29.8181 22.0201C29.8634 21.9751 29.9056 21.9272 29.9446 21.8767H29.9463Z" fill="#543FC4"/>
</svg>
