<svg width="37" height="37" viewBox="0 0 37 37" fill="none" xmlns="http://www.w3.org/2000/svg">
<circle cx="18.5" cy="18.5" r="18.5" fill="white"/>
<path d="M16.2808 5.87089C16.4119 5.6095 16.6148 5.3894 16.8666 5.23549C17.1183 5.08157 17.4089 5 17.7054 5C18.0019 5 18.2924 5.08157 18.5442 5.23549C18.796 5.3894 18.9989 5.6095 19.1299 5.87089L22.195 11.9737L29.0509 12.9539C29.3442 12.9957 29.6197 13.1174 29.8463 13.3052C30.073 13.493 30.2416 13.7393 30.3331 14.0164C30.4247 14.2935 30.4355 14.5902 30.3644 14.873C30.2932 15.1558 30.143 15.4134 29.9307 15.6166L29.0588 16.4516C28.5553 16.1791 28.0254 15.9563 27.477 15.7867L28.8222 14.4991L21.9663 13.5189C21.7118 13.4823 21.4701 13.3854 21.262 13.2367C21.054 13.088 20.8858 12.8918 20.772 12.6651L17.707 6.56077L14.6387 12.6651C14.5248 12.892 14.3564 13.0883 14.148 13.2371C13.9397 13.3858 13.6977 13.4825 13.4429 13.5189L6.58699 14.4991L11.5483 19.2502C11.7324 19.4269 11.8702 19.645 11.9496 19.8856C12.029 20.1262 12.0477 20.3822 12.004 20.6315L10.8336 27.343L16.1411 24.6007C16.1824 25.1563 16.2761 25.6979 16.4206 26.2192L11.5737 28.7243C11.3113 28.8596 11.0157 28.92 10.7202 28.8987C10.4248 28.8775 10.1413 28.7755 9.90172 28.6042C9.66217 28.4329 9.47614 28.1991 9.36467 27.9294C9.2532 27.6596 9.22072 27.3646 9.2709 27.0777L10.4413 20.3677L5.48007 15.6166C5.26774 15.4134 5.11751 15.1558 5.04639 14.873C4.97527 14.5902 4.9861 14.2935 5.07765 14.0164C5.16919 13.7393 5.33781 13.493 5.56441 13.3052C5.79101 13.1174 6.06656 12.9957 6.35989 12.9539L13.2158 11.9752L16.2808 5.86933V5.87089ZM32 23.9763C32 25.8391 31.2471 27.6256 29.9068 28.9428C28.5666 30.26 26.7489 31 24.8535 31C22.9581 31 21.1404 30.26 19.8001 28.9428C18.4599 27.6256 17.707 25.8391 17.707 23.9763C17.707 22.1135 18.4599 20.327 19.8001 19.0099C21.1404 17.6927 22.9581 16.9527 24.8535 16.9527C26.7489 16.9527 28.5666 17.6927 29.9068 19.0099C31.2471 20.327 32 22.1135 32 23.9763ZM25.6475 20.8547C25.6475 20.6477 25.5639 20.4492 25.415 20.3029C25.2661 20.1565 25.0641 20.0743 24.8535 20.0743C24.6429 20.0743 24.4409 20.1565 24.292 20.3029C24.1431 20.4492 24.0594 20.6477 24.0594 20.8547V23.1959H21.6773C21.4667 23.1959 21.2647 23.2781 21.1158 23.4245C20.9669 23.5709 20.8832 23.7694 20.8832 23.9763C20.8832 24.1833 20.9669 24.3818 21.1158 24.5282C21.2647 24.6745 21.4667 24.7567 21.6773 24.7567H24.0594V27.098C24.0594 27.3049 24.1431 27.5034 24.292 27.6498C24.4409 27.7961 24.6429 27.8784 24.8535 27.8784C25.0641 27.8784 25.2661 27.7961 25.415 27.6498C25.5639 27.5034 25.6475 27.3049 25.6475 27.098V24.7567H28.0297C28.2403 24.7567 28.4423 24.6745 28.5912 24.5282C28.7401 24.3818 28.8238 24.1833 28.8238 23.9763C28.8238 23.7694 28.7401 23.5709 28.5912 23.4245C28.4423 23.2781 28.2403 23.1959 28.0297 23.1959H25.6475V20.8547Z" fill="#543FC4"/>
</svg>
