<svg width="37" height="37" viewBox="0 0 37 37" fill="none" xmlns="http://www.w3.org/2000/svg">
<circle cx="18.5" cy="18.5" r="18.5" fill="white"/>
<path d="M8.6 9.19688C8.4352 9.19688 8.2752 9.20967 8.1168 9.23367C8.42371 8.51078 8.93664 7.89422 9.59162 7.46089C10.2466 7.02756 11.0146 6.79662 11.8 6.79688H26.2C27.2609 6.79688 28.2783 7.2183 29.0284 7.96845C29.7786 8.71859 30.2 9.73601 30.2 10.7969V17.3569C29.6886 17.0952 29.1527 16.8846 28.6 16.7281V10.7969C28.6 10.1604 28.3471 9.54991 27.8971 9.09982C27.447 8.64973 26.8365 8.39688 26.2 8.39688H11.8C10.9792 8.39688 10.2544 8.80968 9.8208 9.43688C9.43356 9.27754 9.01874 9.19598 8.6 9.19688ZM17.7312 27.5969C17.8896 28.1553 18.0992 28.6897 18.36 29.1969H11.8C10.7391 29.1969 9.72172 28.7754 8.97157 28.0253C8.22143 27.2752 7.8 26.2577 7.8 25.1969V15.4961C8.32476 15.6313 8.87524 15.6313 9.4 15.4961V25.1969C9.4 25.8334 9.65286 26.4438 10.1029 26.8939C10.553 27.344 11.1635 27.5969 11.8 27.5969H17.7312ZM18.36 21.1969C18.6528 20.6241 19.0064 20.0881 19.4112 19.5969H15C14.7878 19.5969 14.5843 19.6812 14.4343 19.8312C14.2843 19.9812 14.2 20.1847 14.2 20.3969C14.2 20.609 14.2843 20.8125 14.4343 20.9626C14.5843 21.1126 14.7878 21.1969 15 21.1969H18.36ZM8.6 10.7969C8.17565 10.7969 7.76869 10.9654 7.46863 11.2655C7.16857 11.5656 7 11.9725 7 12.3969C7 12.8212 7.16857 13.2282 7.46863 13.5282C7.76869 13.8283 8.17565 13.9969 8.6 13.9969C9.02435 13.9969 9.43131 13.8283 9.73137 13.5282C10.0314 13.2282 10.2 12.8212 10.2 12.3969C10.2 11.9725 10.0314 11.5656 9.73137 11.2655C9.43131 10.9654 9.02435 10.7969 8.6 10.7969ZM15 14.7969C14.7878 14.7969 14.5843 14.8812 14.4343 15.0312C14.2843 15.1812 14.2 15.3847 14.2 15.5969C14.2 15.809 14.2843 16.0125 14.4343 16.1626C14.5843 16.3126 14.7878 16.3969 15 16.3969H23C23.2122 16.3969 23.4157 16.3126 23.5657 16.1626C23.7157 16.0125 23.8 15.809 23.8 15.5969C23.8 15.3847 23.7157 15.1812 23.5657 15.0312C23.4157 14.8812 23.2122 14.7969 23 14.7969H15ZM33.4 25.1969C33.4 27.1064 32.6414 28.9378 31.2912 30.288C29.9409 31.6383 28.1096 32.3969 26.2 32.3969C24.2904 32.3969 22.4591 31.6383 21.1088 30.288C19.7586 28.9378 19 27.1064 19 25.1969C19 23.2873 19.7586 21.456 21.1088 20.1057C22.4591 18.7554 24.2904 17.9969 26.2 17.9969C28.1096 17.9969 29.9409 18.7554 31.2912 20.1057C32.6414 21.456 33.4 23.2873 33.4 25.1969ZM27 21.9969C27 21.7847 26.9157 21.5812 26.7657 21.4312C26.6157 21.2812 26.4122 21.1969 26.2 21.1969C25.9878 21.1969 25.7843 21.2812 25.6343 21.4312C25.4843 21.5812 25.4 21.7847 25.4 21.9969V24.3969H23C22.7878 24.3969 22.5843 24.4812 22.4343 24.6312C22.2843 24.7812 22.2 24.9847 22.2 25.1969C22.2 25.409 22.2843 25.6125 22.4343 25.7626C22.5843 25.9126 22.7878 25.9969 23 25.9969H25.4V28.3969C25.4 28.609 25.4843 28.8125 25.6343 28.9626C25.7843 29.1126 25.9878 29.1969 26.2 29.1969C26.4122 29.1969 26.6157 29.1126 26.7657 28.9626C26.9157 28.8125 27 28.609 27 28.3969V25.9969H29.4C29.6122 25.9969 29.8157 25.9126 29.9657 25.7626C30.1157 25.6125 30.2 25.409 30.2 25.1969C30.2 24.9847 30.1157 24.7812 29.9657 24.6312C29.8157 24.4812 29.6122 24.3969 29.4 24.3969H27V21.9969Z" fill="#543FC4"/>
</svg>
