<svg width="37" height="37" viewBox="0 0 37 37" fill="none" xmlns="http://www.w3.org/2000/svg">
<circle cx="18.5" cy="18.5" r="18.5" fill="white"/>
<path d="M18.2941 28.5882C17.5453 28.5882 16.8271 28.2908 16.2976 27.7612C15.7681 27.2317 15.4706 26.5136 15.4706 25.7647V8.82353C15.4706 8.07468 15.7681 7.35651 16.2976 6.82699C16.8271 6.29748 17.5453 6 18.2941 6C19.043 6 19.7611 6.29748 20.2907 6.82699C20.8202 7.35651 21.1176 8.07468 21.1176 8.82353V16.7294C20.6147 16.9864 20.1414 17.2974 19.7059 17.6569V8.82353C19.7059 8.44911 19.5571 8.09002 19.2924 7.82526C19.0276 7.5605 18.6685 7.41176 18.2941 7.41176C17.9197 7.41176 17.5606 7.5605 17.2958 7.82526C17.0311 8.09002 16.8824 8.44911 16.8824 8.82353V25.7647C16.8824 26.0251 16.9544 26.2804 17.0904 26.5023C17.2264 26.7243 17.4212 26.9044 17.6532 27.0226C17.9214 27.5774 18.2532 28.0955 18.64 28.5671C18.5252 28.5811 18.4097 28.5882 18.2941 28.5882ZM29.5882 14.4706V17.6569C29.1528 17.2974 28.6794 16.9864 28.1765 16.7294V14.4706C28.1765 14.0962 28.0277 13.7371 27.763 13.4723C27.4982 13.2076 27.1391 13.0588 26.7647 13.0588C26.3903 13.0588 26.0312 13.2076 25.7664 13.4723C25.5017 13.7371 25.3529 14.0962 25.3529 14.4706V15.9134C24.8833 15.8711 24.4108 15.8711 23.9412 15.9134V14.4706C23.9412 13.7217 24.2387 13.0036 24.7682 12.4741C25.2977 11.9445 26.0159 11.6471 26.7647 11.6471C27.5136 11.6471 28.2317 11.9445 28.7612 12.4741C29.2908 13.0036 29.5882 13.7217 29.5882 14.4706ZM7 25.7647C7 26.5136 7.29748 27.2317 7.82699 27.7612C8.35651 28.2908 9.07468 28.5882 9.82353 28.5882C10.5724 28.5882 11.2906 28.2908 11.8201 27.7612C12.3496 27.2317 12.6471 26.5136 12.6471 25.7647V20.1176C12.6471 19.3688 12.3496 18.6506 11.8201 18.1211C11.2906 17.5916 10.5724 17.2941 9.82353 17.2941C9.07468 17.2941 8.35651 17.5916 7.82699 18.1211C7.29748 18.6506 7 19.3688 7 20.1176V25.7647ZM9.82353 27.1765C9.44911 27.1765 9.09002 27.0277 8.82526 26.763C8.5605 26.4982 8.41176 26.1391 8.41176 25.7647V20.1176C8.41176 19.7432 8.5605 19.3841 8.82526 19.1194C9.09002 18.8546 9.44911 18.7059 9.82353 18.7059C10.198 18.7059 10.557 18.8546 10.8218 19.1194C11.0866 19.3841 11.2353 19.7432 11.2353 20.1176V25.7647C11.2353 26.1391 11.0866 26.4982 10.8218 26.763C10.557 27.0277 10.198 27.1765 9.82353 27.1765ZM31 23.6471C31 25.332 30.3307 26.9479 29.1393 28.1393C27.9479 29.3307 26.332 30 24.6471 30C22.9622 30 21.3463 29.3307 20.1549 28.1393C18.9634 26.9479 18.2941 25.332 18.2941 23.6471C18.2941 21.9622 18.9634 20.3463 20.1549 19.1549C21.3463 17.9634 22.9622 17.2941 24.6471 17.2941C26.332 17.2941 27.9479 17.9634 29.1393 19.1549C30.3307 20.3463 31 21.9622 31 23.6471ZM25.3529 20.8235C25.3529 20.6363 25.2786 20.4568 25.1462 20.3244C25.0138 20.192 24.8343 20.1176 24.6471 20.1176C24.4598 20.1176 24.2803 20.192 24.1479 20.3244C24.0155 20.4568 23.9412 20.6363 23.9412 20.8235V22.9412H21.8235C21.6363 22.9412 21.4568 23.0155 21.3244 23.1479C21.192 23.2803 21.1176 23.4598 21.1176 23.6471C21.1176 23.8343 21.192 24.0138 21.3244 24.1462C21.4568 24.2786 21.6363 24.3529 21.8235 24.3529H23.9412V26.4706C23.9412 26.6578 24.0155 26.8373 24.1479 26.9697C24.2803 27.1021 24.4598 27.1765 24.6471 27.1765C24.8343 27.1765 25.0138 27.1021 25.1462 26.9697C25.2786 26.8373 25.3529 26.6578 25.3529 26.4706V24.3529H27.4706C27.6578 24.3529 27.8373 24.2786 27.9697 24.1462C28.1021 24.0138 28.1765 23.8343 28.1765 23.6471C28.1765 23.4598 28.1021 23.2803 27.9697 23.1479C27.8373 23.0155 27.6578 22.9412 27.4706 22.9412H25.3529V20.8235Z" fill="#543FC4"/>
</svg>
