<svg width="37" height="37" viewBox="0 0 37 37" fill="none" xmlns="http://www.w3.org/2000/svg">
<circle cx="18.5" cy="18.5" r="18.5" fill="white"/>
<path d="M13.6471 5C12.8358 5 12.0578 5.32227 11.4841 5.89591C10.9105 6.46955 10.5882 7.24757 10.5882 8.05882V16.0225C11.0882 15.881 11.6002 15.7862 12.1176 15.7395V8.05882C12.1176 7.6532 12.2788 7.26419 12.5656 6.97737C12.8524 6.69055 13.2414 6.52941 13.6471 6.52941H24.3529C24.7586 6.52941 25.1476 6.69055 25.4344 6.97737C25.7212 7.26419 25.8824 7.6532 25.8824 8.05882V24.8824H21.2605C21.2137 25.3998 21.119 25.9118 20.9775 26.4118H27.4118C28.6286 26.4118 29.7957 25.9284 30.6561 25.0679C31.5166 24.2074 32 23.0404 32 21.8235V18.7647H27.4118V8.05882C27.4118 7.24757 27.0895 6.46955 26.5159 5.89591C25.9422 5.32227 25.1642 5 24.3529 5H13.6471ZM27.4118 24.8824V20.2941H30.4706V21.8235C30.4706 22.6348 30.1483 23.4128 29.5747 23.9864C29.001 24.5601 28.223 24.8824 27.4118 24.8824ZM15.9412 9.58824C15.7384 9.58824 15.5439 9.6688 15.4004 9.81221C15.257 9.95562 15.1765 10.1501 15.1765 10.3529C15.1765 10.5558 15.257 10.7503 15.4004 10.8937C15.5439 11.0371 15.7384 11.1176 15.9412 11.1176H22.0588C22.2616 11.1176 22.4561 11.0371 22.5996 10.8937C22.743 10.7503 22.8235 10.5558 22.8235 10.3529C22.8235 10.1501 22.743 9.95562 22.5996 9.81221C22.4561 9.6688 22.2616 9.58824 22.0588 9.58824H15.9412ZM15.1765 13.4118C15.1765 13.209 15.257 13.0144 15.4004 12.871C15.5439 12.7276 15.7384 12.6471 15.9412 12.6471H22.0588C22.2616 12.6471 22.4561 12.7276 22.5996 12.871C22.743 13.0144 22.8235 13.209 22.8235 13.4118C22.8235 13.6146 22.743 13.8091 22.5996 13.9525C22.4561 14.0959 22.2616 14.1765 22.0588 14.1765H15.9412C15.7384 14.1765 15.5439 14.0959 15.4004 13.9525C15.257 13.8091 15.1765 13.6146 15.1765 13.4118ZM19.7647 24.1176C19.7647 25.943 19.0396 27.6935 17.7489 28.9842C16.4582 30.2749 14.7077 31 12.8824 31C11.057 31 9.30649 30.2749 8.01579 28.9842C6.7251 27.6935 6 25.943 6 24.1176C6 22.2923 6.7251 20.5418 8.01579 19.2511C9.30649 17.9604 11.057 17.2353 12.8824 17.2353C14.7077 17.2353 16.4582 17.9604 17.7489 19.2511C19.0396 20.5418 19.7647 22.2923 19.7647 24.1176ZM13.6471 21.0588C13.6471 20.856 13.5665 20.6615 13.4231 20.5181C13.2797 20.3747 13.0852 20.2941 12.8824 20.2941C12.6795 20.2941 12.485 20.3747 12.3416 20.5181C12.1982 20.6615 12.1176 20.856 12.1176 21.0588V23.3529H9.82353C9.62072 23.3529 9.42621 23.4335 9.2828 23.5769C9.13939 23.7203 9.05882 23.9148 9.05882 24.1176C9.05882 24.3205 9.13939 24.515 9.2828 24.6584C9.42621 24.8018 9.62072 24.8824 9.82353 24.8824H12.1176V27.1765C12.1176 27.3793 12.1982 27.5738 12.3416 27.7172C12.485 27.8606 12.6795 27.9412 12.8824 27.9412C13.0852 27.9412 13.2797 27.8606 13.4231 27.7172C13.5665 27.5738 13.6471 27.3793 13.6471 27.1765V24.8824H15.9412C16.144 24.8824 16.3385 24.8018 16.4819 24.6584C16.6253 24.515 16.7059 24.3205 16.7059 24.1176C16.7059 23.9148 16.6253 23.7203 16.4819 23.5769C16.3385 23.4335 16.144 23.3529 15.9412 23.3529H13.6471V21.0588Z" fill="#543FC4"/>
</svg>
